<?xml version="1.0" encoding="UTF-8" standalone="no"?>
<svg
   xmlns:dc="http://purl.org/dc/elements/1.1/"
   xmlns:cc="http://creativecommons.org/ns#"
   xmlns:rdf="http://www.w3.org/1999/02/22-rdf-syntax-ns#"
   xmlns:svg="http://www.w3.org/2000/svg"
   xmlns="http://www.w3.org/2000/svg"
   viewBox="0 0 324.25333 166.8"
   height="166.8"
   width="324.25333"
   xml:space="preserve"
   version="1.1"
   id="svg2"><metadata
     id="metadata8"><rdf:RDF><cc:Work
         rdf:about=""><dc:format>image/svg+xml</dc:format><dc:type
           rdf:resource="http://purl.org/dc/dcmitype/StillImage" /></cc:Work></rdf:RDF></metadata><defs
     id="defs6"><clipPath
       id="clipPath18"
       clipPathUnits="userSpaceOnUse"><path
         id="path20"
         d="m 0,0 2431.91,0 0,1251 L 0,1251 0,0 Z" /></clipPath></defs><g
     transform="matrix(1.3333333,0,0,-1.3333333,0,166.8)"
     id="g10"><g
       transform="scale(0.1)"
       id="g12"><g
         id="g14"><g
           clip-path="url(#clipPath18)"
           id="g16"><path
             id="path22"
             style="fill:#052340;fill-opacity:1;fill-rule:nonzero;stroke:none"
             d="m 36.7188,82.082 c 0,-22.7734 0.8203,-38.1406 2.0507,-42.0508 C 39.7852,36.75 40,36.75 51.0742,36.75 c 23.5938,0 35.8985,10.25 35.8985,29.9414 0,15.3906 -8.8282,28.2969 -22.7735,33.2188 -5.1172,2.0508 -12.7148,2.8708 -22.7734,2.8708 l -4.707,0 0,-20.699 z m 6.1523,27.27 c 9.4336,0 15.3906,-0.411 21.1328,-1.653 10.8594,5.961 16.1914,13.75 16.1914,24.199 0,11.493 -6.3476,21.332 -16.4062,25.024 -3.4766,1.449 -9.4336,1.859 -22.7735,1.859 -3.4765,0 -4.5117,-0.633 -4.5117,-2.269 0,-0.192 0,-0.821 0.2149,-1.422 l 0,-45.738 6.1523,0 z M 53.125,166.16 c 16.8164,0 23.7891,-1.441 31.582,-6.558 7.793,-5.332 12.3047,-13.75 12.3047,-23.383 0,-13.528 -8.2031,-23.379 -25.4297,-30.348 11.4844,-3.09 17.8516,-6.371 23.5938,-12.1093 6.5622,-6.3515 10.4492,-15.5898 10.4492,-25.2226 0,-10.6602 -4.922,-20.9102 -13.5352,-27.6875 C 82.0508,32.6484 69.7461,29.3594 49.6484,29.3594 l -43.90621,0 0,6.3711 7.59761,0 c 4.9219,0 5.7422,0.1992 5.7422,2.25 l 0,1.2304 c -0.2148,3.4883 -0.2148,14.3477 -0.2148,32.6211 l 0,42.648 c 0,22.758 -0.8203,38.34 -2.0508,42.25 -0.8203,2.872 -1.4258,3.059 -8.80859,3.059 l -8.00781,0 0,6.371 53.125,0" /><path
             id="path24"
             style="fill:#052340;fill-opacity:1;fill-rule:nonzero;stroke:none"
             d="m 133.027,91.5117 c 0,16.3283 -0.586,28.0083 -1.484,30.8593 -0.762,2.09 -1.055,2.25 -6.445,2.25 l -5.84,0 0,4.649 36.387,0 0,-4.649 -5.547,0 c -3.594,0 -4.18,-0.16 -4.18,-1.641 l 0,-0.898 0.137,-2.402 0,-52.5784 c 0,-16.7618 0.605,-27.9922 1.504,-30.8399 0.605,-2.0898 1.054,-2.25 6.445,-2.25 l 5.84,0 0,-4.6523 -36.543,0 0,4.6523 5.683,0 c 3.594,0 4.2,0.1602 4.2,1.6367 l 0,0.9024 c -0.157,2.5586 -0.157,10.4883 -0.157,23.8086 l 0,31.1523" /><path
             id="path26"
             style="fill:#052340;fill-opacity:1;fill-rule:nonzero;stroke:none"
             d="m 259.883,72.6484 c 0,-17.9687 -2.403,-26.5078 -9.59,-34.1367 -7.031,-7.6406 -18.867,-12.1328 -31.602,-12.1328 -11.972,0 -23.066,4.043 -29.492,10.6211 -6.445,6.4492 -8.105,13.4805 -8.105,32.6602 l 0,21.8515 c 0,16.6363 -0.586,28.0083 -1.485,30.8593 -0.605,2.09 -1.054,2.25 -6.445,2.25 l -5.84,0 0,4.649 36.387,0 0,-4.649 -5.527,0 c -3.594,0 -4.2,-0.16 -4.2,-1.641 l 0,-0.898 0.157,-2.402 0,-45.6917 c 0,-17.8086 0.742,-22.9102 4.179,-29.1992 4.2,-7.6289 13.184,-11.9883 24.121,-11.9883 11.075,0 20.821,4.3594 25.899,11.6992 4.648,6.8789 5.84,12.8711 5.84,31.1484 l 0,15.8633 c 0,16.6363 -0.586,28.0083 -1.485,30.8593 -0.605,2.09 -1.054,2.25 -6.445,2.25 l -5.84,0 0,4.649 29.063,0 0,-4.649 -5.547,0 c -3.594,0 -4.199,-0.16 -4.199,-1.641 l 0,-0.898 0.156,-2.402 0,-47.0316" /><path
             id="path28"
             style="fill:#052340;fill-opacity:1;fill-rule:nonzero;stroke:none"
             d="m 307.363,79.5391 c 2.539,-0.1602 4.785,-0.2891 7.481,-0.2891 17.676,0 27.715,7.4805 27.715,20.949 0,9.59 -5.704,18.422 -14.082,21.883 -3.145,1.348 -7.051,1.797 -15.723,1.797 -4.942,0 -5.547,-0.16 -5.547,-1.66 0,-0.137 0,-0.59 0.156,-1.039 l 0,-41.6409 z m 0,-12.4375 c 0,-16.7618 0.586,-27.9922 1.485,-30.8399 0.605,-2.0898 1.054,-2.25 6.445,-2.25 l 5.84,0 0,-4.6523 -36.387,0 0,4.6523 5.547,0 c 3.594,0 4.18,0.1602 4.18,1.6367 l 0,0.9024 c -0.137,2.5586 -0.137,10.4883 -0.137,23.8086 l 0,31.1523 c 0,16.6363 -0.606,28.0083 -1.504,30.8593 -0.605,2.09 -1.055,2.25 -6.445,2.25 l -5.84,0 0,4.649 42.676,0 c 19.629,0 32.05,-10.329 32.05,-26.661 0,-13.4801 -8.828,-22.9098 -23.945,-25.609 l 10.02,-14.3906 c 12.285,-17.5196 17.226,-23.6602 21.718,-27.0899 1.504,-1.2109 2.696,-1.5078 5.391,-1.5078 l 2.559,0 0,-4.6523 -16.328,0 c -3.145,0 -3.907,0.1601 -4.942,1.0625 -2.558,1.9297 -10.937,13.4765 -17.519,23.957 -2.247,4.0508 -4.649,7.7813 -7.188,11.3711 l -6.152,8.8516 -4.492,0 c -2.403,0 -4.336,0.1601 -7.032,0.289 l 0,-7.789" /><path
             id="path30"
             style="fill:#052340;fill-opacity:1;fill-rule:nonzero;stroke:none"
             d="m 394.219,113.102 c -5.235,-7.352 -8.086,-18.1332 -8.086,-30.8637 0,-14.8281 3.457,-27.1094 10.351,-35.7969 7.481,-9.7305 17.969,-15.1211 29.493,-15.1211 11.679,0 22.011,5.5391 28.457,15.2695 4.785,7.0313 7.343,17.6797 7.343,30.1016 0,29.7966 -16.484,50.4686 -40.293,50.4686 -10.781,0 -21.113,-5.238 -27.265,-14.058 z m 80.586,-32.2114 c 0,-31.4492 -22.461,-54.5117 -53.028,-54.5117 -29.804,0 -48.808,19.9219 -48.808,50.9102 0,16.7812 6.133,31.6089 17.519,41.9409 9.434,8.692 21.27,13.032 35.332,13.032 29.512,0 48.985,-20.383 48.985,-51.3714" /><path
             id="path32"
             style="fill:#052340;fill-opacity:1;fill-rule:nonzero;stroke:none"
             d="m 544.043,114.48 c 0,22.352 -0.82,38.34 -2.051,42.25 -1.015,2.872 -1.426,3.059 -8.808,3.059 l -8.008,0 0,6.371 49.844,0 0,-6.371 -7.598,0 c -4.922,0 -5.742,-0.187 -5.742,-2.238 l 0,-1.231 0.215,-3.281 0,-71.9999 c 0,-22.9571 0.82,-38.3399 2.05,-42.2383 0.821,-2.8711 1.426,-3.0703 8.809,-3.0703 l 8.008,0 0,-6.3711 -50.039,0 0,6.3711 7.793,0 c 4.922,0 5.742,0.1992 5.742,2.25 l 0,1.2304 c -0.215,3.4883 -0.215,14.3477 -0.215,32.6211 l 0,42.648" /><path
             id="path34"
             style="fill:#052340;fill-opacity:1;fill-rule:nonzero;stroke:none"
             d="m 677.949,50.9297 0,40.582 c 0,16.0393 -0.742,28.3163 -1.953,30.8593 -0.898,1.961 -1.484,2.25 -5.976,2.25 l -5.84,0 0,4.649 28.593,0 0,-4.649 -5.996,0 c -3.593,0 -4.179,-0.16 -4.179,-1.641 l 0,-3.91 0.136,-6.129 0,-14.691 0.606,-65.8984 0,-2.6914 c 0,-1.0391 -0.449,-1.6407 -1.192,-1.6407 -0.761,0 -0.761,0 -2.851,2.4024 l -69.649,83.5661 c -0.136,-6.597 -0.293,-8.687 -0.293,-22.0271 l 0,-24.8593 c 0,-14.2227 0.899,-28.1524 1.797,-30.8399 0.743,-1.9531 1.348,-2.25 6.133,-2.25 l 5.703,0 0,-4.6523 -28.457,0 0,4.6523 5.684,0 c 3.457,0 4.199,0.1602 4.199,1.6367 0,0.3204 0,0.6133 -0.156,0.9024 l 0,68.9102 c 0,8.98 -0.293,11.68 -1.641,14.508 -1.953,4.043 -2.988,4.652 -8.828,4.652 l -3.164,0 0,4.649 22.324,0 65,-78.3403" /><path
             id="path36"
             style="fill:#052340;fill-opacity:1;fill-rule:nonzero;stroke:none"
             d="m 776.348,118.781 c -0.45,-3.59 -0.606,-3.75 -1.953,-3.75 -1.348,0 -1.797,0.449 -1.797,1.949 -0.157,4.649 -9.883,6.899 -29.356,6.899 l -10.176,0 c -3.593,0 -4.199,-0.32 -4.199,-1.66 l 0,-1.039 0.156,-2.239 0,-31.6129 15.274,0 c 10.332,0 16.621,0.5938 19.023,1.9414 1.485,0.7617 1.641,1.3399 1.641,5.0899 l 0,4.5 4.199,0 0,-26.6602 -4.199,0 0,3.1406 c 0,4.4883 -0.156,5.2618 -1.504,5.6993 -1.484,0.5898 -9.277,1.0429 -19.023,1.0429 l -15.411,0 0,-14.9804 c 0,-16.7618 0.586,-27.9922 1.485,-30.8399 0.605,-2.0898 1.054,-2.25 6.445,-2.25 l 5.84,0 0,-4.6523 -36.387,0 0,4.6523 5.547,0 c 3.594,0 4.18,0.1602 4.18,1.6367 l 0,0.9024 c -0.137,2.5586 -0.137,10.4883 -0.137,23.8086 l 0,31.1523 c 0,16.6363 -0.605,28.0083 -1.504,30.8593 -0.605,2.09 -1.054,2.25 -6.445,2.25 l -5.84,0 0,4.649 75.488,0 -1.347,-10.489" /><path
             id="path38"
             style="fill:#052340;fill-opacity:1;fill-rule:nonzero;stroke:none"
             d="m 807.207,113.102 c -5.234,-7.352 -8.086,-18.1332 -8.086,-30.8637 0,-14.8281 3.457,-27.1094 10.332,-35.7969 7.5,-9.7305 17.969,-15.1211 29.512,-15.1211 11.68,0 22.012,5.5391 28.457,15.2695 4.785,7.0313 7.344,17.6797 7.344,30.1016 0,29.7966 -16.485,50.4686 -40.293,50.4686 -10.782,0 -21.114,-5.238 -27.266,-14.058 z m 80.586,-32.2114 c 0,-31.4492 -22.481,-54.5117 -53.027,-54.5117 -29.805,0 -48.828,19.9219 -48.828,50.9102 0,16.7812 6.152,31.6089 17.539,41.9409 9.433,8.692 21.25,13.032 35.332,13.032 29.511,0 48.984,-20.383 48.984,-51.3714" /><path
             id="path40"
             style="fill:#052340;fill-opacity:1;fill-rule:nonzero;stroke:none"
             d="m 925.977,79.5391 c 2.539,-0.1602 4.785,-0.2891 7.48,-0.2891 17.676,0 27.715,7.4805 27.715,20.949 0,9.59 -5.684,18.422 -14.082,21.883 -3.145,1.348 -7.031,1.797 -15.723,1.797 -4.941,0 -5.547,-0.16 -5.547,-1.66 0,-0.137 0,-0.59 0.157,-1.039 l 0,-41.6409 z m 0,-12.4375 c 0,-16.7618 0.605,-27.9922 1.503,-30.8399 0.586,-2.0898 1.036,-2.25 6.426,-2.25 l 5.84,0 0,-4.6523 -36.387,0 0,4.6523 5.547,0 c 3.594,0 4.18,0.1602 4.18,1.6367 l 0,0.9024 c -0.137,2.5586 -0.137,10.4883 -0.137,23.8086 l 0,31.1523 c 0,16.6363 -0.605,28.0083 -1.504,30.8593 -0.605,2.09 -1.054,2.25 -6.445,2.25 l -5.84,0 0,4.649 42.695,0 c 19.61,0 32.051,-10.329 32.051,-26.661 0,-13.4801 -8.847,-22.9098 -23.965,-25.609 L 959.98,62.6094 c 12.266,-17.5196 17.208,-23.6602 21.7,-27.0899 1.504,-1.2109 2.695,-1.5078 5.41,-1.5078 l 2.539,0 0,-4.6523 -16.328,0 c -3.145,0 -3.887,0.1601 -4.942,1.0625 -2.539,1.9297 -10.937,13.4765 -17.519,23.957 -2.246,4.0508 -4.649,7.7813 -7.188,11.3711 l -6.152,8.8516 -4.492,0 c -2.383,0 -4.336,0.1601 -7.031,0.289 l 0,-7.789" /><path
             id="path42"
             style="fill:#052340;fill-opacity:1;fill-rule:nonzero;stroke:none"
             d="m 1052.97,50.7891 c 1.35,2.9921 1.66,3.5898 3.75,8.832 0.9,2.2383 1.8,4.3281 2.69,6.4375 l 5.1,12.1328 10.63,25.6096 2.85,6.289 c 1.5,3.14 2.85,6.601 4.2,10.332 1.19,3.297 1.93,4.937 3.44,8.848 l 22.32,0 0,-4.649 -5.55,0 c -3.59,0 -4.2,-0.16 -4.2,-1.641 l 0,-0.898 0.16,-2.402 0,-52.5784 c 0,-16.7618 0.6,-27.9922 1.5,-30.8399 0.59,-2.0898 1.04,-2.25 6.43,-2.25 l 5.84,0 0,-4.6523 -36.39,0 0,4.6523 5.55,0 c 3.59,0 4.18,0.1602 4.18,1.6367 0,0.3204 0,0.6133 -0.14,0.9024 l 0,23.8086 0.14,53.7696 -34.88,-81.7774 c -1.06,-2.543 -1.06,-2.543 -1.66,-2.543 -0.3,0 -0.75,0.3008 -1.04,1.2031 l -0.45,1.0469 -36.25,79.8204 c -0.29,-3.141 -0.29,-3.59 -0.29,-8.219 l 0,-7.6483 c -0.16,-3.2929 -0.16,-5.8398 -0.16,-7.1914 l 0,-22.4609 c 0.45,-32.6406 0.61,-32.9492 8.69,-32.3477 l 5.24,0 0,-4.6523 -28.752,0 0,4.6523 5.682,0 c 3.15,0 3.75,0.2969 3.75,1.9571 l 0,0.582 c 0.16,0.7578 0.16,3.5976 0.16,9.5898 l 0,5.5508 0.13,8.668 0,30.4101 c 0.16,10.6285 0.16,10.6285 0.16,13.1795 0,10.492 -0.6,14.539 -2.25,17.231 -1.79,2.832 -3.14,3.441 -7.925,3.441 l -4.063,0 0,4.649 25.318,0 36.09,-78.4809" /><path
             id="path44"
             style="fill:#052340;fill-opacity:1;fill-rule:nonzero;stroke:none"
             d="m 1161.56,113.988 c -1.79,-3.75 -2.69,-5.699 -5.68,-12.886 -1.66,-3.8832 -3.3,-7.9301 -4.94,-11.9731 -1.51,-3.457 -3.01,-7.0469 -4.36,-10.7773 l -2.24,-6.1524 31.15,0 -13.93,41.7888 z m -19.47,-47.3396 -3.14,-8.0898 c -3.89,-10.3281 -6,-17.6484 -6,-20.7969 0,-3.1406 0.9,-3.75 5.84,-3.75 l 7.95,0 0,-4.6523 -31.76,0 0,4.6523 2.7,0 c 4.8,0 5.25,0.1602 6.6,3.8867 0.74,1.9532 1.64,3.9102 2.38,5.7032 2.4,5.5273 4.94,11.6796 7.64,18.4179 l 22.32,53.3205 c 2.85,6.582 5.39,12.422 6.9,15.121 l 6.42,1.5 c 1.35,0.301 2.4,0.449 3.15,0.449 0.89,0 1.34,-0.601 1.34,-1.5 0,-0.609 -0.29,-1.058 -1.03,-1.64 -1.35,-1.059 -1.8,-1.801 -1.8,-3.008 0,-2.703 4.18,-16.621 8.69,-29.3636 l 12.58,-35.039 c 4.34,-12.2774 8.83,-22.9102 10.47,-25.4375 1.5,-2.1133 2.4,-2.4102 6.6,-2.4102 l 3.15,0 0,-4.6523 -35.2,0 0,4.6523 5.68,0 c 4.81,0 4.95,0.1602 4.95,1.3477 0,0.1601 -2.25,6.9023 -6.88,20.5117 l -3.91,10.7773 -35.64,0" /><path
             id="path46"
             style="fill:#052340;fill-opacity:1;fill-rule:nonzero;stroke:none"
             d="m 1299.8,118.172 -0.13,-1.793 c -0.16,-1.938 -0.61,-2.539 -1.8,-2.539 -1.35,0 -1.5,0.449 -1.8,2.691 -0.6,5.098 -11.99,9.891 -23.67,9.891 -26.66,0 -45.23,-20.063 -45.23,-48.8322 0,-26.5117 17.67,-45.6914 42.09,-45.6914 11.23,0 23.22,4.6524 28.16,10.8008 1.49,1.9414 1.8,2.5391 2.09,5.2422 0.16,1.3477 0.9,2.0898 1.95,2.0898 1.06,0 1.65,-0.7421 1.65,-1.9296 0,-0.6133 0,-1.5118 -0.14,-2.4102 l -0.92,-11.3828 c -8.83,-4.6484 -23.81,-7.9297 -36.09,-7.9297 -32.64,0 -52.56,18.5703 -52.56,48.8203 0,16.9219 6.58,31.4488 18.87,41.9418 10.93,9.429 26.66,15.121 41.93,15.121 8.4,0 17.52,-1.801 26.5,-5.242 l -0.9,-8.848" /><path
             id="path48"
             style="fill:#052340;fill-opacity:1;fill-rule:nonzero;stroke:none"
             d="m 1293.07,8.53906 c -0.61,3.01174 -0.61,3.01174 -0.61,3.46094 0,1.0391 0.74,1.6406 1.8,1.6406 1.19,0 1.35,-0.289 2.24,-2.539 1.2,-3.45316 6,-5.83988 11.39,-5.83988 8.38,0 15.43,5.38668 18.26,14.21878 1.96,5.2383 1.96,6.289 1.96,28.6211 l 0,43.4101 c 0,16.6363 -0.61,28.0083 -1.51,30.8593 -0.58,2.09 -1.03,2.25 -6.42,2.25 l -5.86,0 0,4.649 36.4,0 0,-4.649 -5.54,0 c -3.44,0 -4.2,-0.16 -4.2,-1.641 l 0,-0.898 0.15,-2.402 0,-71.4495 c 0.16,-4.3321 0.16,-4.3321 0.16,-7.3203 l 0,-3.461 0.14,-3.8906 c 0,-20.3672 -14.22,-33.5468812 -35.94,-33.5468812 -4.49,0 -7.79,0.3085932 -10.94,1.2070312 l -1.48,7.32031" /><path
             id="path50"
             style="fill:#052340;fill-opacity:1;fill-rule:nonzero;stroke:none"
             d="m 1375.72,91.5117 c 0,16.3283 -0.58,28.0083 -1.48,30.8593 -0.76,2.09 -1.06,2.25 -6.45,2.25 l -5.84,0 0,4.649 36.39,0 0,-4.649 -5.53,0 c -3.59,0 -4.2,-0.16 -4.2,-1.641 l 0,-0.898 0.16,-2.402 0,-52.5784 c 0,-16.7618 0.59,-27.9922 1.48,-30.8399 0.61,-2.0898 1.06,-2.25 6.45,-2.25 l 5.84,0 0,-4.6523 -36.54,0 0,4.6523 5.68,0 c 3.59,0 4.2,0.1602 4.2,1.6367 l 0,0.9024 c -0.16,2.5586 -0.16,10.4883 -0.16,23.8086 l 0,31.1523" /><path
             id="path52"
             style="fill:#052340;fill-opacity:1;fill-rule:nonzero;stroke:none"
             d="m 1486.46,76.9414 c 0,-18.6523 0.83,-34.4531 2.06,-38.1406 0.82,-2.8711 1.44,-3.0703 8.82,-3.0703 l 7.99,0 0,-6.3711 -49.82,0 0,6.3711 7.58,0 c 4.92,0 5.74,0.1992 5.74,2.25 l 0,1.2304 c -0.2,3.4883 -0.2,14.3477 -0.2,32.6211 l 0,42.648 c 0,22.758 -0.82,38.34 -2.05,42.25 -0.82,2.872 -1.44,3.059 -8.83,3.059 l -7.98,0 0,6.371 49.82,0 0,-6.371 -7.58,0 c -4.92,0 -5.74,-0.187 -5.74,-2.238 l 0,-1.231 0.19,-3.281 0,-61.7382 c 12.93,10.2502 28.93,25.6402 50.04,48.1992 l 5.96,6.559 c 5.53,6.351 8.42,10.453 8.42,12.312 0,1.418 0,1.418 -7.19,1.418 l -11.48,0 0,6.371 44.92,0 0,-6.371 -3.69,0 c -2.68,0 -4.92,0 -5.74,-0.187 -1.45,-0.411 -1.45,-0.411 -6.57,-5.551 l -5.74,-6.153 c -23.81,-24.199 -28.93,-29.32 -42.46,-42.437 15.37,-17.8516 15.78,-18.461 27.68,-33.8516 l 6.15,-7.5782 3.08,-3.9023 6.98,-8.6172 c 11.7,-14.3515 13.75,-15.7812 21.32,-15.7812 l 3.7,0 0,-6.3711 -22.97,0 c -5.53,0 -6.57,0.2226 -7.8,1.039 -1.23,0.6133 -1.23,0.6133 -9.84,11.8907 l -10.66,14.5625 c -14.36,19.2695 -24.61,32.1992 -29.34,37.3203 -2.66,-2.461 -5.74,-5.1211 -14.77,-12.5 l 0,-4.7305" /><path
             id="path54"
             style="fill:#052340;fill-opacity:1;fill-rule:nonzero;stroke:none"
             d="m 1612.85,79.5391 c 2.54,-0.1602 4.79,-0.2891 7.48,-0.2891 17.68,0 27.72,7.4805 27.72,20.949 0,9.59 -5.71,18.422 -14.09,21.883 -3.14,1.348 -7.05,1.797 -15.72,1.797 -4.94,0 -5.54,-0.16 -5.54,-1.66 0,-0.137 0,-0.59 0.15,-1.039 l 0,-41.6409 z m 0,-12.4375 c 0,-16.7618 0.59,-27.9922 1.49,-30.8399 0.6,-2.0898 1.05,-2.25 6.44,-2.25 l 5.84,0 0,-4.6523 -36.39,0 0,4.6523 5.53,0 c 3.6,0 4.2,0.1602 4.2,1.6367 l 0,0.9024 c -0.16,2.5586 -0.16,10.4883 -0.16,23.8086 l 0,31.1523 c 0,16.6363 -0.58,28.0083 -1.48,30.8593 -0.61,2.09 -1.05,2.25 -6.44,2.25 l -5.84,0 0,4.649 42.67,0 c 19.63,0 32.05,-10.329 32.05,-26.661 0,-13.4801 -8.83,-22.9098 -23.96,-25.609 l 10.04,-14.3906 c 12.28,-17.5196 17.22,-23.6602 21.71,-27.0899 1.51,-1.2109 2.7,-1.5078 5.4,-1.5078 l 2.53,0 0,-4.6523 -16.3,0 c -3.15,0 -3.91,0.1601 -4.95,1.0625 -2.55,1.9297 -10.93,13.4765 -17.53,23.957 -2.25,4.0508 -4.63,7.7813 -7.19,11.3711 l -6.13,8.8516 -4.5,0 c -2.4,0 -4.33,0.1601 -7.03,0.289 l 0,-7.789" /><path
             id="path56"
             style="fill:#052340;fill-opacity:1;fill-rule:nonzero;stroke:none"
             d="m 1752.58,118.488 c -0.31,-3.457 -0.45,-3.597 -1.8,-3.597 -1.21,0 -1.5,0.3 -1.8,2.539 -0.76,4.039 -10.19,6.449 -26.05,6.449 l -13.34,0 c -3.59,0 -4.2,-0.32 -4.2,-1.66 l 0,-1.039 0.16,-2.239 0,-31.9215 15.43,0 c 10.33,0 16.62,0.6094 19.02,1.8008 1.48,0.8985 1.64,1.5 1.64,5.1016 l 0,4.4883 4.2,0 0,-26.6602 -4.2,0 0,3.3008 c 0,4.4883 -0.16,5.2304 -1.5,5.6797 -1.49,0.6093 -9.12,1.0586 -19.01,1.0586 l -15.58,0 0,-13.9297 c 0,-16.7813 0.6,-27.8477 1.5,-30.8594 0.59,-2.0898 1.04,-2.2383 6.43,-2.2383 l 9.59,0 c 18.12,0 29.2,2.8477 31.6,8.2383 0.76,1.3516 1.05,1.7891 1.95,1.7891 0.9,0 1.51,-0.5977 1.51,-1.3399 0,-0.4492 -0.16,-1.3476 -0.61,-2.8476 l -3.44,-11.2422 -71.15,0 0,4.6523 5.55,0 c 3.59,0 4.2,0.1602 4.2,1.6367 l 0,0.9024 c -0.16,2.5586 -0.16,10.4883 -0.16,23.8086 l 0,31.1523 c 0,16.6363 -0.61,28.0083 -1.5,30.8593 -0.59,2.09 -1.04,2.25 -6.43,2.25 l -5.86,0 0,4.649 75.35,0 -1.5,-10.782" /><path
             id="path58"
             style="fill:#052340;fill-opacity:1;fill-rule:nonzero;stroke:none"
             d="m 1792.27,68.7617 c 0,-17.6836 0.44,-28.75 1.5,-31.6015 0.74,-2.25 1.19,-2.3985 7.77,-2.3985 4.2,0 12.15,0.8867 18.44,2.2383 10.92,2.1094 17.81,6.6016 23.36,15.1406 3.89,6.2891 5.84,14.0586 5.84,23.5078 0,21.8633 -9.43,38.0316 -26.21,45.0816 -5.84,2.379 -12.42,3.149 -27.27,3.149 -2.83,0 -3.59,-0.32 -3.59,-1.66 0,-0.137 0,-0.59 0.16,-1.039 l 0,-52.4183 z m -13.03,22.75 c 0,16.6363 -0.61,28.0083 -1.51,30.8593 -0.58,2.09 -1.03,2.25 -6.42,2.25 l -5.86,0 0,4.649 41.5,0 c 20.35,0 30.1,-2.7 40.28,-11.391 10.48,-8.828 16.17,-21.7188 16.17,-36.6993 0,-14.2188 -5.08,-27.5586 -14.22,-37.1289 -10.04,-10.7813 -21.72,-14.6914 -42.83,-14.6914 l -36.7,0 0,4.6523 5.55,0 c 3.59,0 4.19,0.1602 4.19,1.6367 l 0,0.9024 c -0.15,2.5586 -0.15,10.4883 -0.15,23.8086 l 0,31.1523" /><path
             id="path60"
             style="fill:#052340;fill-opacity:1;fill-rule:nonzero;stroke:none"
             d="m 1916.13,67.1016 c 0,-16.7618 0.61,-27.9922 1.51,-30.8399 0.58,-2.0898 1.03,-2.25 6.42,-2.25 l 5.84,0 0,-4.6523 -36.38,0 0,4.6523 5.54,0 c 3.6,0 4.18,0.1602 4.18,1.6367 l 0,0.9024 c -0.13,2.5586 -0.13,10.4883 -0.13,23.8086 l 0,11.9922 -20.98,36.3864 c -4.18,7.192 -7.19,11.844 -9.14,14.082 -1.49,1.641 -1.8,1.801 -6.88,1.801 l -3.14,0 0,4.649 35.33,0 0,-4.649 -8.38,0 c -0.9,0 -1.35,-0.289 -1.35,-0.742 0,-0.449 0.9,-2.25 3.31,-6.289 1.79,-3.149 4.04,-7.192 5.97,-10.649 l 16.04,-28.1402 c 5.09,9.1211 10.17,18.8711 17.81,33.9802 l 1.35,3.008 c 1.34,2.699 2.24,5.68 2.24,7.191 0,1.481 -0.13,1.641 -5.39,1.641 l -6.74,0 0,4.649 28.62,0 0,-4.649 -3.15,0 c -4.2,0 -4.2,0 -6.15,-3.59 l -1.48,-2.699 c -1.51,-2.703 -3.01,-5.391 -4.65,-8.383 -1.51,-2.847 -0.74,-1.347 -2.25,-4.199 -2.69,-4.941 -5.23,-9.8789 -7.93,-14.5312 -7.5,-13.7696 -7.79,-14.5274 -10.04,-18.418 l 0,-5.6992" /><path
             id="path62"
             style="fill:#052340;fill-opacity:1;fill-rule:nonzero;stroke:none"
             d="m 2008.24,67.1016 c 0,-16.7618 0.59,-27.9922 1.49,-30.8399 0.6,-2.0898 1.05,-2.25 6.44,-2.25 l 8.69,0 0,-4.6523 -44.18,0 0,4.6523 10.47,0 c 3.6,0 4.2,0.1602 4.2,1.6367 l 0,0.9024 c -0.15,2.5586 -0.15,10.4883 -0.15,23.8086 l 0,63.3596 -5.98,0 c -9.3,0 -18.42,-1.5 -22.77,-3.75 -2.25,-1.028 -3.15,-1.93 -4.2,-4.34 -0.75,-1.641 -1.35,-2.09 -2.25,-2.09 -1.04,0 -1.8,0.59 -1.8,1.352 0,0.589 0,0.589 1.06,3.597 l 3.59,10.782 77.74,0 3.59,-10.782 0.61,-1.797 c 0.29,-0.761 0.44,-1.351 0.44,-1.8 0,-0.762 -0.76,-1.352 -1.66,-1.352 -1.19,0 -1.64,0.449 -2.38,2.09 -1.05,2.41 -2.24,3.601 -4.8,4.652 -4.5,2.09 -13.48,3.438 -22.17,3.438 l -5.98,0 0,-56.6174" /><path
             id="path64"
             style="fill:#052340;fill-opacity:1;fill-rule:nonzero;stroke:none"
             d="m 2072.91,113.102 c -5.23,-7.352 -8.09,-18.1332 -8.09,-30.8637 0,-14.8281 3.46,-27.1094 10.34,-35.7969 7.5,-9.7305 17.98,-15.1211 29.51,-15.1211 11.68,0 22.01,5.5391 28.46,15.2695 4.78,7.0313 7.34,17.6797 7.34,30.1016 0,29.7966 -16.49,50.4686 -40.29,50.4686 -10.79,0 -21.12,-5.238 -27.27,-14.058 z m 80.59,-32.2114 c 0,-31.4492 -22.46,-54.5117 -53.03,-54.5117 -29.81,0 -48.83,19.9219 -48.83,50.9102 0,16.7812 6.15,31.6089 17.54,41.9409 9.43,8.692 21.27,13.032 35.33,13.032 29.51,0 48.99,-20.383 48.99,-51.3714" /><path
             id="path66"
             style="fill:#052340;fill-opacity:1;fill-rule:nonzero;stroke:none"
             d="m 2305.35,124.621 -5.39,0 c -1.35,0 -1.64,-0.16 -1.93,-1.062 -0.16,-0.129 -0.61,-1.188 -0.9,-1.93 l -2.11,-5.84 -2.25,-5.84 -2.54,-6.289 -26.05,-68.5897 c -2.56,-7.0508 -2.56,-7.0508 -3.59,-7.0508 -1.21,0 -1.21,0 -3.46,6.2891 l -25.61,64.25 -24.25,-63.9375 c -2.11,-6.6016 -2.11,-6.6016 -3.31,-6.6016 -0.74,0 -1.19,0.4493 -1.95,2.5391 l -1.03,2.8516 -28.62,71.4418 c -8.08,19.929 -8.38,20.218 -14.08,19.769 l -3.59,0 0,4.649 34.29,0 0,-4.649 -9.59,0 c -0.89,0 -1.19,-0.289 -1.19,-0.902 0,-0.449 2.7,-7.188 7.95,-19.918 l 22.15,-53.0119 20.53,54.9609 -1.35,3.148 c -6.29,15.563 -6.29,15.723 -12.44,15.723 l -4.49,0 0,4.649 35.5,0 0,-4.649 -5.09,0 c -5.55,0 -5.55,0 -5.55,-0.742 0,-0.32 0.16,-0.77 0.45,-1.348 0.31,-1.211 0.76,-2.25 1.05,-2.851 0.9,-2.09 1.96,-4.649 2.99,-7.352 l 3.3,-8.527 21.43,-54.219 0.9,2.5586 2.54,6.1289 c 0.45,1.3516 0.74,2.0899 6.29,16.6211 l 7.79,21.1211 c 4.78,13.4883 7.64,22.9293 7.64,26.2073 0,0.89 -0.45,1.793 -1.2,2.113 -0.6,0.289 -0.6,0.289 -5.86,0.289 l -5.68,0 0,4.649 28.3,0 0,-4.649" /><path
             id="path68"
             style="fill:#052340;fill-opacity:1;fill-rule:nonzero;stroke:none"
             d="m 2381.74,118.488 c -0.31,-3.457 -0.45,-3.597 -1.8,-3.597 -1.21,0 -1.5,0.3 -1.8,2.539 -0.76,4.039 -10.19,6.449 -26.05,6.449 l -13.34,0 c -3.59,0 -4.2,-0.32 -4.2,-1.66 l 0,-1.039 0.16,-2.239 0,-31.9215 15.43,0 c 10.33,0 16.62,0.6094 19.02,1.8008 1.48,0.8985 1.64,1.5 1.64,5.1016 l 0,4.4883 4.2,0 0,-26.6602 -4.2,0 0,3.3008 c 0,4.4883 -0.16,5.2304 -1.5,5.6797 -1.49,0.6093 -9.12,1.0586 -19.01,1.0586 l -15.58,0 0,-13.9297 c 0,-16.7813 0.6,-27.8477 1.5,-30.8594 0.59,-2.0898 1.04,-2.2383 6.43,-2.2383 l 9.59,0 c 18.12,0 29.2,2.8477 31.6,8.2383 0.76,1.3516 1.05,1.7891 1.95,1.7891 0.9,0 1.51,-0.5977 1.51,-1.3399 0,-0.4492 -0.16,-1.3476 -0.61,-2.8476 l -3.44,-11.2422 -71.15,0 0,4.6523 5.55,0 c 3.59,0 4.2,0.1602 4.2,1.6367 l 0,0.9024 c -0.16,2.5586 -0.16,10.4883 -0.16,23.8086 l 0,31.1523 c 0,16.6363 -0.61,28.0083 -1.5,30.8593 -0.59,2.09 -1.04,2.25 -6.43,2.25 l -5.86,0 0,4.649 75.35,0 -1.5,-10.782" /><path
             id="path70"
             style="fill:#052340;fill-opacity:1;fill-rule:nonzero;stroke:none"
             d="m 2374.26,8.53906 c -0.61,3.01174 -0.61,3.01174 -0.61,3.46094 0,1.0391 0.74,1.6406 1.8,1.6406 1.19,0 1.35,-0.289 2.25,-2.539 1.19,-3.45316 5.99,-5.83988 11.38,-5.83988 8.38,0 15.43,5.38668 18.26,14.21878 1.96,5.2383 1.96,6.289 1.96,28.6211 l 0,43.4101 c 0,16.6363 -0.61,28.0083 -1.51,30.8593 -0.58,2.09 -1.03,2.25 -6.42,2.25 l -5.86,0 0,4.649 36.4,0 0,-4.649 -5.54,0 c -3.44,0 -4.2,-0.16 -4.2,-1.641 l 0,-0.898 0.15,-2.402 0,-71.4495 c 0.16,-4.3321 0.16,-4.3321 0.16,-7.3203 l 0,-3.461 0.14,-3.8906 c 0,-20.3672 -14.22,-33.5468812 -35.94,-33.5468812 -4.49,0 -7.79,0.3085932 -10.94,1.2070312 l -1.48,7.32031" /><path
             id="path72"
             style="fill:#052340;fill-opacity:1;fill-rule:nonzero;stroke:none"
             d="m 1696.05,588.641 -162.65,199.175 0,-151.011 c 0,0 -0.16,-21.602 2.24,-48.164 l -133.2,0 c 2.93,32.168 2.7,54.414 2.7,54.414 l 0,319.91 c 0,0 1.01,16.68 -2.5,51.235 l 132.4,0 c -2.01,-21.88 -1.64,-54.868 -1.64,-54.868 l 0,-135.566 154.08,190.434 139.36,0 -158.4,-199.262 184.18,-226.297 -156.57,0 z m -402.2,365.437 0,-310.672 c 0,0 -0.1,-30.523 1.83,-54.765 -20.91,0 -116.99,0 -116.99,0 0,0 4.42,13.617 4.42,54.746 0,23.617 0,310.679 0,310.679 0,0 0,25.344 -2.93,60.134 l 116.19,0 c -3.97,-44.38 -2.52,-60.122 -2.52,-60.122 z M 1064.53,621.57 c -25.08,-21.953 -60.12,-32.929 -105.155,-32.929 0,0 -205.684,0 -249.941,0 3.984,29.574 4.062,55.351 4.062,55.351 l 0,322.117 c 0,0 -0.078,27.715 -5.078,48.091 19.473,0 210.84,0 210.84,0 26.601,0 49.804,-2.56 69.551,-7.66 19.761,-5.11 35.681,-12.11 47.791,-20.997 12.07,-8.887 21.08,-19.355 26.99,-31.406 5.94,-12.051 8.93,-25.215 8.93,-39.492 0,-15.528 -3.07,-29.883 -9.18,-43.047 -6.09,-13.184 -13.69,-24.016 -22.71,-32.481 -9.07,-8.476 -18.19,-14.453 -27.35,-17.91 28.89,-11.484 50.94,-25.996 66.1,-43.523 15.17,-17.539 22.77,-40.215 22.77,-68.086 0,-36.754 -12.56,-66.09 -37.62,-88.028 z m 526.82,629.46 c -141.82,0 -268.61,-64.21 -353,-165.1 -84.39,100.89 -211.18,165.1 -352.998,165.1 -254.082,0 -460.059,-205.98 -460.059,-460.057 0,-254.09 205.977,-460.067 460.059,-460.067 141.818,0 268.608,64.211 352.998,165.102 84.39,-100.891 211.18,-165.102 353,-165.102 254.08,0 460.06,205.977 460.06,460.067 0,254.077 -205.98,460.057 -460.06,460.057 z M 933.379,851.293 c 13.086,6.691 19.629,20.187 19.629,40.48 0,20.293 -6.797,33.789 -20.41,40.469 -13.594,6.699 -34.805,10.059 -63.653,10.059 l -27.207,0 0,-101.035 27.813,0 c 29.453,0 50.722,3.339 63.828,10.027 z m -39.16,-81.949 -52.481,0 0,-108.809 52.481,0 c 53.125,0 79.668,18.09 79.668,54.262 0,36.363 -26.543,54.547 -79.668,54.547" /></g></g></g></g></svg>