<svg xmlns="http://www.w3.org/2000/svg" width="250" height="200" viewBox="0 0 99.999974 100.90155"><path d="M 63.11 77.93 l 1.693 -1.19 s 2.056 2.092 3.03 3.065 c 0.072 0.072 0.108 0.072 0.216 0.072 h 1.98 v -0.036 c -0.04 -0.03 -0.07 -0.03 -0.07 -0.07 c -1.27 -1.26 -3.9 -3.86 -3.9 -3.89 c 1.22 -0.86 2.41 -1.69 3.64 -2.56 v -0.03 h -2.02 c -0.11 0 -0.18 0.04 -0.25 0.07 c -1.37 0.98 -4.19 2.92 -4.26 2.96 v -3.03 h -1.58 v 6.53 h 1.58 v -1.88 Z M 6.85 32.203 c 1.66 0.758 4.363 -0.036 5.373 -2.272 C 20.7 11.4 37.505 4.04 49.44 2.82 c 1.3 -0.144 2.273 -0.433 2.273 -1.407 c 0 -0.9 -0.974 -1.406 -2.02 -1.406 C 32.095 0 14.425 9.917 5.41 27.047 c -0.938 1.768 -0.145 4.436 1.442 5.157 Z m 77.21 32.853 C 97.8 65.056 100 51.28 100 45.078 c 0 -10.495 -5.95 -20.484 -10.097 -25.785 C 80.995 7.97 68.77 4.147 59.683 4.147 c -5.554 0 -9.953 0.72 -12.766 2.92 c -3.318 2.634 0.36 7.43 4.11 5.374 c 2.886 -1.55 5.626 -2.3 11.54 -2.3 c 10.567 0 18.933 6.03 24.415 11.51 c 4.796 4.76 10.17 13.74 10.277 23.08 c 0.03 3.82 -0.8 7.68 -2.93 11.4 c -2.2 3.82 -6.49 5.99 -10.46 5.19 c -1.84 -0.36 -4.58 -2.59 -3.57 -6.09 c 1.11 -3.93 2.48 -8.43 3.06 -10.38 h 4.58 c 0.83 0 1.58 -0.54 1.84 -1.37 c 0.18 -0.57 0.07 -1.19 -0.29 -1.66 s -0.94 -0.75 -1.55 -0.75 h -3.42 c 0.93 -3.102 2.48 -8.33 2.77 -9.196 c 0.83 -2.56 -1.12 -2.884 -2.67 -2.307 c -3.25 1.15 -5.02 1.66 -9.31 0.285 c -2.67 -0.83 -5.09 -0.72 -7.218 0.145 c -3.06 1.228 -5.08 4.29 -5.08 7.466 c 0 1.227 0.18 2.418 0.794 3.5 c -0.393 0.11 -0.79 0.217 -1.15 0.325 c -3.21 1.19 -4.834 4.074 -4.184 7.464 c 0.25 1.26 0.974 2.27 1.515 2.884 c 1.12 1.3 2.272 2.63 3.354 3.93 l 0.83 0.973 c 0.756 0.865 1.116 1.694 1.116 2.596 c 0 0.9 -0.213 1.51 -0.72 2.02 c -0.25 0.25 -0.755 0.5 -1.3 0.5 c -3.75 0 -3.134 -5.986 -6.56 -6.383 c -0.97 -0.11 -1.945 0.18 -2.63 0.83 c -3.21 2.96 -7.175 4.4 -9.63 4.4 c -0.5 0 -1.584 -0.4 -1.8 -1.66 c 7.79 -4.11 12.8 -9.63 12.8 -13.124 c 0 -2.02 -0.756 -5.084 -5.12 -5.084 c -8.22 0 -14.57 10.966 -14.17 17.67 c -0.9 0.54 -3.5 1.95 -4.257 1.12 c -0.214 -0.25 -0.214 -0.65 -0.07 -1.12 c 1.84 -6.2 3.14 -9.84 3.32 -13.45 c 0.11 -2.234 -1.95 -4.22 -4.94 -4.22 c -4.26 0 -6.28 2.56 -7.5 3.5 c -1.52 -3.064 -4.838 -5.445 -8.3 -5.55 C 5.19 38.266 0 45.226 0 54.31 c 0 21.31 20.34 46.59 49.982 46.59 c 19.762 0 34.62 -11.396 41.507 -21.782 c 0.9 -1.334 2.12 -4.904 -0.29 -6.455 c -2.78 -1.803 -5.77 0.757 -6.53 2.092 c -3.64 6.345 -14.24 20.807 -34.84 20.807 c -21.68 0 -46.7 -18.716 -46.7 -41.363 c 0 -9.56 5.84 -12.19 9.88 -12.19 c 4.54 0 4.36 3.86 4.18 4.87 c -0.69 3.49 -2.13 8.33 -3.53 13.3 c -0.94 3.28 1.73 4.5 2.74 4.5 h 0.07 c 1.33 0 2.59 -0.8 2.95 -2.09 c 1.8 -6.46 2.3 -8.05 2.99 -11.11 c 0.4 -1.66 0.76 -4.62 0.72 -4.73 c 3.1 -2.63 5.59 -1.73 5.372 0.21 c -0.36 3.242 -2.166 8.69 -3.1 12.474 c -0.94 3.75 2.413 5.195 3.64 5.195 c 2.595 0 4.723 -1.625 7.933 -3.32 c 0.83 2.09 3.14 3.316 5.194 3.316 c 4.69 0 8.87 -2.525 11 -4.653 c 1.086 2.342 5.197 4.65 8.3 4.65 c 5.013 0 9.233 -2.274 9.74 -6.998 c 0.47 -4.436 -3.535 -7.61 -6.13 -10.64 c -0.43 -0.505 -1.3 -1.73 -0.54 -2.813 c 0.214 -0.32 1.19 -0.97 2.162 -0.18 c 0.036 0.04 0.18 0.148 0.29 0.256 c 0.65 0.61 1.91 1.8 3.68 1.8 c 1.872 0 3.134 -0.94 3.28 -2.49 c 0.18 -1.66 -0.975 -2.96 -2.78 -3.14 c -1.01 -0.11 -1.765 -0.073 -2.7 0 h -0.29 s -0.04 -0.037 -0.04 -0.073 c -0.07 -0.11 -0.145 -0.215 -0.18 -0.323 c -0.83 -1.84 -0.145 -3.9 1.333 -5.196 c 1.803 -1.55 4.11 -1.406 6.347 -1.26 c 0 0 3.43 0.215 4.33 0.29 c -0.144 0.43 -5.23 17.272 -5.625 18.68 c -1.55 5.7 2.484 12.48 9.7 12.48 Z m -34.946 -20.7 c 0.36 -0.072 0.505 0.145 0.54 0.47 c 0.47 2.884 -3.497 7.5 -6.923 9.916 c 0.33 -2.38 2.74 -9.664 6.39 -10.386 Z m 7.61 33.646 l -0.11 -0.108 c -0.684 -0.72 -1.405 -1.443 -2.09 -2.2 c -0.758 -0.793 -1.48 -1.55 -2.236 -2.344 c -0.036 -0.036 -0.072 -0.072 -0.144 -0.072 H 50.34 v 6.563 h 1.623 v -4.68 l 0.072 0.08 c 1.443 1.52 2.92 3.03 4.364 4.51 c 0.03 0.04 0.11 0.07 0.18 0.07 h 1.76 v -6.53 h -1.62 V 78 Z m -19.222 -3.75 c -0.468 -0.613 -1.154 -0.902 -1.91 -0.938 c -1.876 -0.036 -3.787 0 -5.663 0 h -0.07 v 6.563 h 5.44 c 0.28 0 0.54 0 0.83 -0.036 c 0.5 -0.03 0.97 -0.18 1.37 -0.5 c 0.57 -0.43 0.75 -1.01 0.65 -1.69 c -0.11 -0.46 -0.4 -0.79 -0.8 -1.04 c -0.08 -0.03 -0.11 -0.07 -0.18 -0.11 c 0.03 -0.03 0.03 -0.03 0.07 -0.03 c 0.72 -0.57 0.72 -1.58 0.25 -2.2 Z m -6.022 0.324 h 3.894 c 0.18 0 0.36 0 0.542 0.108 a 0.616 0.616 0 0 1 0.252 0.686 a 0.65 0.65 0 0 1 -0.577 0.504 h -4.07 c -0.03 -0.432 -0.03 -0.865 -0.03 -1.298 Z m 4.4 4.003 c -0.108 0.03 -0.253 0.03 -0.36 0.03 h -4.04 v -1.48 h 4.22 c 0.326 0 0.614 0.14 0.76 0.47 c 0.215 0.43 -0.073 0.9 -0.578 0.97 Z m 9.16 -5.27 h -1.768 c -0.072 0 -0.144 0.03 -0.18 0.11 c -1.01 1.84 -1.983 3.71 -2.993 5.55 c -0.15 0.29 -0.33 0.57 -0.47 0.9 h 1.55 c 0.03 0 0.11 -0.04 0.11 -0.07 c 0.21 -0.4 0.43 -0.83 0.65 -1.23 c 0.03 -0.08 0.07 -0.11 0.18 -0.11 h 4.04 c 0.07 0 0.1 0.03 0.14 0.11 c 0.21 0.39 0.43 0.83 0.68 1.22 c 0.03 0.03 0.07 0.07 0.1 0.07 h 1.55 c -0.04 -0.08 -0.07 -0.11 -0.11 -0.18 c -1.12 -2.1 -2.28 -4.19 -3.39 -6.28 c 0 -0.08 -0.04 -0.11 -0.11 -0.11 Z m -2.38 3.86 c 0.468 -0.91 0.973 -1.77 1.442 -2.67 c 0.505 0.9 0.974 1.76 1.442 2.67 H 42.66 Z" /></svg>